<svg xmlns="http://www.w3.org/2000/svg" viewBox="0 0 3183.56 4593.45"><defs><style>.cls-1{fill:#fff;}</style></defs><g id="Layer_2" data-name="Layer 2"><g id="Layer_1-2" data-name="Layer 1"><path class="cls-1" d="M2199.93,0c-225.76,0-438.53,168.63-608.82,478.66C1424.92,177.8,1214.87,0,983.63,0,432.06,0,0,1008.85,0,2296.73S432.06,4593.45,983.63,4593.45c231.31,0,441.41-177.93,607.64-478.93,170.16,309.58,383.62,478.93,608.66,478.93,551.56,0,983.63-1008.84,983.63-2296.72S2751.49,0,2199.93,0ZM1022,2913.81c-106.69,644.7-5.38,1198.44,226.28,1236.78,56.06,9.28,114.61-12.73,172.68-60.15-133.57,220.49-287.42,342.62-437.29,342.62-397.56,0-823.24-858.44-823.24-2136.33S586.07,160.38,983.63,160.38c361.48,0,746.09,709.79,813,1799.15-42.69-81.94-97.22-133-162-143.7C1403,1777.5,1128.65,2269.08,1022,2913.81Zm1812.66-899.37c-231.68-38.35-506,453.22-612.68,1097.95C2118.78,3735.76,2210.1,4274,2425.67,4343.61c-74.21,58.56-150.47,89.45-225.74,89.45-183.3,0-366.63-173.73-516.13-489.15l-4-11.61c178.22-413.56,287.41-989.06,287.41-1635.57,0-647.23-109.19-1223.86-287.76-1637.5,150.38-321.73,334.36-498.85,520.43-498.85,389,0,804.66,822.13,822.39,2054.64C2976.76,2099.92,2913.22,2027.45,2834.62,2014.44Z"/></g></g></svg>