<svg xmlns="http://www.w3.org/2000/svg" viewBox="0 0 3183.56 4593.45"><defs><style>.cls-1{fill:#fff;}</style></defs><g id="Layer_2" data-name="Layer 2"><g id="Layer_1-2" data-name="Layer 1"><path class="cls-1" d="M2199.93,0c-231.3,0-441.42,177.91-607.64,478.93C1422.12,169.35,1208.65,0,983.63,0,432.06,0,0,1008.85,0,2296.73S432.06,4593.45,983.63,4593.45c225.77,0,438.52-168.65,608.83-478.64,166.19,300.83,376.24,478.64,607.47,478.64,551.57,0,983.63-1008.84,983.63-2296.72S2751.5,0,2199.93,0ZM983.63,4433.06c-389,0-804.66-822.12-822.39-2054.61C206.79,2493.53,270.34,2566,348.93,2579c231.67,38.34,506-453.23,612.67-1098C1064.76,857.7,973.44,319.48,757.88,249.85c74.21-58.57,150.48-89.47,225.75-89.47,183.29,0,366.59,173.75,516.15,489.16l3.91,11.66c-178.22,413.53-287.39,989-287.39,1635.53,0,647.21,109.18,1223.79,287.74,1637.45C1353.67,4256,1169.66,4433.06,983.63,4433.06Zm1216.3,0c-361.47,0-746.09-709.78-813-1799.13,42.68,81.94,97.22,133,162,143.66,231.67,38.35,506-453.22,612.66-1097.94S2167,481.2,1935.3,442.85c-56-9.26-114.59,12.72-172.64,60.14,133.55-220.49,287.39-342.61,437.27-342.61,397.56,0,823.24,858.45,823.24,2136.35S2597.49,4433.06,2199.93,4433.06Z"/></g></g></svg>