<svg xmlns="http://www.w3.org/2000/svg" viewBox="0 0 3188.21 4593.45"><defs><style>.cls-1{fill:#fff;}</style></defs><g id="Layer_2" data-name="Layer 2"><g id="Layer_1-2" data-name="Layer 1"><path class="cls-1" d="M2204.58,0C1973.29,0,1763.18,177.89,1597,478.89,1426.77,169.33,1213.31,0,988.28,0c-512,0-920.71,869.37-976.8,2024.09C4.05,2111.65,0,2202.85,0,2296.73s4,185.05,11.48,272.63c56.09,1154.71,464.84,2024.09,976.8,2024.09,225.77,0,438.53-168.65,608.82-478.66,166.19,300.85,376.25,478.66,607.48,478.66,551.57,0,983.63-1008.84,983.63-2296.72S2756.15,0,2204.58,0ZM988.28,4433.06c-264.92,0-542.16-381.56-697.77-1014.05,42.33,39.33,87.59,61,134.66,61,234.83,0,425.19-529.76,425.19-1183.25S660,1113.47,425.17,1113.47c-47.07,0-92.33,21.62-134.66,61,155.61-632.49,432.85-1014,697.77-1014,183.3,0,366.63,173.75,516.17,489.16l4,11.28c-152.81,354.46-254.7,828-280.69,1363.43-7.41,87.52-11.46,178.66-11.46,272.48s4,184.94,11.46,272.45c26,536,127.88,1010.45,281,1365C1358.33,4256,1174.35,4433.06,988.28,4433.06Zm1216.3,0c-264.92,0-542.15-381.56-697.77-1014.05,42.33,39.33,87.59,61,134.68,61,234.82,0,425.17-529.76,425.17-1183.25s-190.35-1183.26-425.17-1183.26c-47.09,0-92.35,21.62-134.68,61,155.62-632.49,432.85-1014,697.77-1014,397.56,0,823.24,858.45,823.24,2136.35S2602.14,4433.06,2204.58,4433.06Z"/></g></g></svg>