<svg xmlns="http://www.w3.org/2000/svg" viewBox="0 0 4733.72 4733.74"><defs><style>.cls-1{fill:#fff;}</style></defs><g id="Layer_2" data-name="Layer 2"><g id="Layer_1-2" data-name="Layer 1"><path class="cls-1" d="M2366.85,4733.74c1305.1,0,2366.87-1061.79,2366.87-2366.89S3672,0,2366.85,0,0,1061.76,0,2366.85,1061.76,4733.74,2366.85,4733.74Zm0-3576.92c66.69,0,132.55,1.82,197.82,4.72q14.6,216.93,24,476.39-109.47-3-221.83-3.18-112.42,0-221.8,3.18,9.19-259.17,24-476.39C2234.32,1158.64,2300.17,1156.82,2366.85,1156.82Zm-194.44-43.37c13.29-186.78,29.08-349.41,46.26-487,49-2.34,98.36-3.93,148.18-3.93s99.15,1.59,148.21,3.93c17.17,137.62,33,300.25,46.26,487-64.21-2.8-128.94-4.6-194.47-4.6S2236.61,1110.65,2172.41,1113.45Zm194.44,2463.47c-66.68,0-132.53-1.82-197.8-4.71q-14.58-216.93-24-476.39,109.47,3,221.8,3.18,112.43,0,221.83-3.18-9.21,259.17-24,476.39C2499.4,3575.1,2433.54,3576.92,2366.85,3576.92Zm194.46,43.38c-13.28,186.77-29.08,349.38-46.26,487-49.05,2.36-98.37,4-148.2,4s-99.13-1.6-148.18-4c-17.17-137.62-33-300.23-46.26-487,64.2,2.8,128.91,4.6,194.44,4.6S2497.11,3623.1,2561.31,3620.3ZM2086.2,2134.36c-1,79.7-1.49,157.63-1.49,232.49s.53,152.79,1.49,232.47q-211.08-2.61-400.11-9-3.3-110.54-3.39-223.51t3.39-223.53Q1875.35,2137.14,2086.2,2134.36Zm-398.44-38c4.76-131.51,12.87-260,24.12-384.46,124.47-11.26,253-19.37,384.51-24.13-4.57,135-7.75,269.31-9.62,399C1957.11,2088.61,1822.82,2091.79,1687.76,2096.37Zm399,550.58c1.87,129.67,5.05,264,9.62,399-131.51-4.76-260-12.88-384.51-24.13-11.25-124.47-19.36-253-24.12-384.52C1822.82,2641.9,1957.11,2645.07,2086.77,2647Zm11.37,447.43c5.82,160.33,13.66,320.91,23.69,475.73-116.78-6.44-231-17.43-342-32.62-26-146.2-47.28-302.23-63.28-465.68Q1901.32,3087.61,2098.14,3094.38Zm0-1455q-196.56,6.59-381.56,22.54c16-163.44,37.32-319.47,63.27-465.67q166.5-22.76,342-32.6C2111.8,1318.45,2104,1479,2098.14,1639.37Zm-431.9,26.88c-162.63,15.09-317.15,35.42-462.08,60.25,22.69-150.8,53.09-295.3,90.48-431.86,136.55-37.38,281-67.78,431.84-90.47C1701.65,1349.11,1681.32,1503.62,1666.24,1666.25Zm-4.34,50.35q-15.76,184.73-22.55,381.51c-160.34,5.83-320.91,13.67-475.73,23.7q9.66-175.15,32.61-341.94C1342.43,1753.92,1498.46,1732.59,1661.9,1716.6Zm-24,428.42q-3,109.5-3.18,221.83,0,112.44,3.18,221.82-259.17-9.21-476.39-24c-2.9-65.26-4.72-131.13-4.72-197.81s1.82-132.54,4.72-197.83Q1378.47,2154.46,1637.91,2145Zm1.44,490.56q6.59,196.56,22.56,381.56c-163.45-16-319.48-37.32-465.68-63.28q-22.77-166.5-32.61-342C1318.44,2621.93,1479,2629.76,1639.35,2635.58Zm26.89,431.91c15.09,162.61,35.41,317.14,60.24,462.06-150.79-22.69-295.29-53.09-431.84-90.47-37.39-136.56-67.79-281.06-90.48-431.83C1349.1,3032.07,1503.61,3052.4,1666.24,3067.49ZM1735.18,3579c32.66,180.14,72.51,344.21,118.38,488.6a2869,2869,0,0,1-351.94-82.95c-74.86-146.82-139.64-312.46-192.2-493C1444.52,3527.75,1586.92,3557.09,1735.18,3579Zm53.71,7.78q163.9,22,336.11,31.6c11.88,173.74,26.64,338.67,44.49,486.12-87.69-5.59-174.11-14.57-258.77-27.34C1863.89,3933.2,1822.86,3767.91,1788.89,3586.76Zm578-1454.09c79.87,0,157.17.5,232.92,1.25.77,75.76,1.27,153.06,1.27,232.93s-.5,157.17-1.27,232.91c-75.75.78-153.05,1.28-232.92,1.28s-157.15-.5-232.9-1.28c-.77-75.74-1.26-153.05-1.26-232.91s.49-157.17,1.26-232.93C2209.7,2133.17,2287,2132.67,2366.85,2132.67Zm-232.46-46.5q2.63-211.05,9-400.07,110.55-3.3,223.51-3.38t223.53,3.38q6.2,189.23,8.95,400.07c-79.68-1-157.63-1.48-232.48-1.48S2214.07,2085.21,2134.39,2086.17Zm464.94,561.36q-2.62,211.08-9,400.09-110.53,3.3-223.52,3.4t-223.5-3.4q-6.2-189.21-9-400.09c79.68,1,157.62,1.48,232.46,1.48S2519.65,2648.49,2599.33,2647.53Zm9.39,970.83q172-9.33,336.09-31.6c-34,181.15-75,346.44-121.83,490.38-84.66,12.77-171.07,21.75-258.75,27.34C2582.08,3957,2596.84,3792.1,2608.72,3618.36Zm38.81-1484q211.06,2.64,400.08,9,3.3,110.55,3.39,223.53t-3.39,223.51q-189.22,6.21-400.08,9c1-79.68,1.48-157.63,1.48-232.47S2648.49,2214.06,2647.53,2134.36Zm-.58-47.61c-1.87-129.66-5-263.93-9.61-399,131.5,4.76,260,12.87,384.49,24.11,11.24,124.46,19.36,253,24.11,384.48C2910.89,2091.79,2776.62,2088.61,2647,2086.75Zm0,560.2c129.67-1.88,263.94-5,399-9.61-4.75,131.5-12.87,260-24.12,384.5-124.46,11.25-253,19.37-384.49,24.13C2641.91,2910.9,2645.08,2776.62,2647,2647Zm420.51,420.54c162.63-15.09,317.15-35.42,462.08-60.24-22.69,150.79-53.09,295.27-90.48,431.83-136.55,37.38-281,67.78-431.84,90.47C3032.05,3384.63,3052.37,3230.1,3067.46,3067.49Zm4.34-50.35q15.76-184.76,22.56-381.56c160.34-5.82,320.9-13.65,475.72-23.69q-9.66,175.17-32.61,342C3391.28,2979.82,3235.25,3001.15,3071.8,3017.14Zm24-428.47q3-109.47,3.18-221.82,0-112.44-3.18-221.83,259.17,9.2,476.39,24c2.89,65.29,4.71,131.15,4.71,197.83s-1.82,132.55-4.71,197.81Q3355.25,2579.26,3095.8,2588.67Zm-1.44-490.56q-6.6-196.52-22.56-381.51c163.45,16,319.48,37.3,465.68,63.27q22.77,166.49,32.6,341.94C3415.27,2111.78,3254.7,2103.94,3094.36,2098.11Zm-26.89-431.86c-15.09-162.63-35.42-317.14-60.25-462.08,150.79,22.69,295.29,53.09,431.85,90.47,37.38,136.56,67.79,281.06,90.47,431.86C3384.61,1701.67,3230.09,1681.34,3067.47,1666.25Zm-50.34-4.34q-184.74-15.77-381.54-22.54c-5.83-160.35-13.66-320.92-23.7-475.73q175.17,9.64,342,32.6C2979.81,1342.44,3001.13,1498.47,3017.13,1661.91ZM2635.59,3094.38q196.53-6.6,381.53-22.57c-16,163.45-37.32,319.48-63.27,465.68-111,15.19-225.19,26.16-342,32.62C2621.93,3415.27,2629.76,3254.71,2635.59,3094.38ZM2998.52,3579c148.27-21.89,290.67-51.23,425.76-87.31-52.56,180.52-117.34,346.14-192.21,493a2868.36,2868.36,0,0,1-351.93,82.95C2926,3923.19,2965.86,3759.12,2998.52,3579Zm478.7-101.74c177.35-50.37,341.29-112.34,488.17-184.1-54.93,166.63-124,323.2-205.5,466.72-143.53,81.53-300.12,150.59-466.77,205.52C3364.89,3818.51,3426.85,3654.58,3477.22,3477.24Zm14.44-52.93c36.08-135.1,65.41-277.5,87.3-425.76,180.15-32.68,344.23-72.52,488.63-118.39a2872.73,2872.73,0,0,1-83,351.92C3837.81,3307,3672.17,3371.74,3491.66,3424.31Zm95.07-479.47q22-163.9,31.61-336.13c173.75-11.87,338.69-26.64,486.15-44.49q-8.4,131.54-27.35,258.77C3933.19,2869.85,3767.9,2910.86,3586.73,2944.84Zm33.55-383.54c2.79-64.2,4.6-128.93,4.6-194.45s-1.81-130.26-4.6-194.47c186.78,13.3,349.41,29.11,487,46.28,2.35,49.05,3.95,98.36,3.95,148.19s-1.6,99.15-3.95,148.2C3969.69,2532.22,3807.06,2548,3620.28,2561.3ZM3618.34,2125q-9.33-172-31.6-336.09c181.16,34,346.45,75,490.41,121.83,12.77,84.65,21.74,171.06,27.34,258.75C3957,2151.63,3792.09,2136.86,3618.34,2125ZM3579,1735.19c-21.89-148.25-51.22-290.67-87.3-425.76,180.52,52.55,346.15,117.34,493,192.21a2871.87,2871.87,0,0,1,83,351.92C3923.2,1807.71,3759.11,1767.85,3579,1735.19Zm-101.74-478.71c-50.37-177.31-112.33-341.26-184.1-488.14,166.65,54.93,323.23,124,466.76,205.51,81.53,143.53,150.58,300.1,205.51,466.73C3818.51,1368.82,3654.56,1306.86,3477.22,1256.48Zm-52.94-14.43c-135.09-36.08-277.49-65.4-425.76-87.29-32.66-180.14-72.51-344.22-118.38-488.62a2873.86,2873.86,0,0,1,351.93,83C3306.94,895.91,3371.72,1061.56,3424.28,1242.05ZM2944.82,1147q-163.89-22-336.1-31.61c-11.87-173.74-26.64-338.66-44.49-486.12,87.69,5.6,174.1,14.55,258.75,27.33C2869.83,800.54,2910.85,965.83,2944.82,1147ZM2125,1115.38q-172,9.33-336.12,31.61c34-181.16,75-346.45,121.84-490.4,84.66-12.78,171.07-21.73,258.77-27.35C2151.64,776.72,2136.87,941.64,2125,1115.38Zm-389.82,39.38c-148.26,21.89-290.66,51.21-425.77,87.29,52.57-180.49,117.35-346.14,192.22-493a2877.55,2877.55,0,0,1,351.93-83C1807.69,810.54,1767.85,974.62,1735.18,1154.76Zm-478.7,101.72c-177.33,50.38-341.27,112.34-488.15,184.1,54.93-166.65,124-323.22,205.52-466.73,143.52-81.54,300.09-150.58,466.72-205.51C1368.81,915.22,1306.85,1079.17,1256.48,1256.48Zm-14.44,53c-36.08,135.11-65.41,277.51-87.3,425.76-180.14,32.68-344.21,72.52-488.61,118.37a2874.89,2874.89,0,0,1,83-351.94C895.9,1426.77,1061.54,1362,1242,1309.43ZM1147,1788.9q-22,163.89-31.61,336.09c-173.75,11.87-338.66,26.64-486.12,44.49,5.6-87.69,14.56-174.1,27.34-258.75C800.52,1863.9,965.81,1822.88,1147,1788.9Zm-33.54,383.48c-2.8,64.21-4.6,128.93-4.6,194.47s1.8,130.25,4.6,194.45c-186.78-13.29-349.4-29.08-487-46.25-2.35-49.05-3.94-98.37-3.94-148.2s1.59-99.14,3.94-148.19C764,2201.47,926.65,2185.68,1113.43,2172.38Zm1.93,436.33q9.33,172,31.61,336.13c-181.16-34-346.44-75-490.39-121.85q-19.17-127-27.35-258.77C776.69,2582.07,941.61,2596.84,1115.36,2608.71Zm39.39,389.82c21.88,148.28,51.22,290.68,87.29,425.78-180.5-52.57-346.14-117.35-493-192.23a2875.54,2875.54,0,0,1-83-351.92C810.53,2926,974.6,2965.87,1154.75,2998.53Zm101.73,478.71c50.37,177.34,112.33,341.27,184.09,488.14-166.63-54.93-323.21-124-466.72-205.5-81.54-143.52-150.59-300.11-205.52-466.74C915.21,3364.9,1079.15,3426.87,1256.48,3477.24ZM1471,4025.31c148.18,282.92,333.85,495.9,541.7,610.79-395.92-108.92-743.2-396.57-991.62-796.49C1160.87,3913.21,1311.52,3975.68,1471,4025.31Zm62.13,18.59a2937,2937,0,0,0,337.23,75.27c85.78,253.14,190.85,439.59,308.17,536.8C1930.36,4581.37,1707.22,4361.56,1533.09,4043.9Zm394.83,83.89q121.72,17.39,247.53,25.06c31,240,70.88,427.24,120.89,518.37C2158,4620.67,2030.5,4423.28,1927.92,4127.79Zm438.93,556.42c-40.09,0-95.19-176.68-141.89-528.5,47,2.12,94.22,3.52,141.89,3.52s94.92-1.4,141.91-3.52C2462.06,4507.53,2407,4684.21,2366.85,4684.21Zm191.42-531.36q125.71-7.67,247.51-25.06c-102.58,295.49-230.06,492.86-368.41,543.43C2487.38,4580.07,2527.25,4392.84,2558.27,4152.85Zm305.11-33.68a2937,2937,0,0,0,337.23-75.25c-174.12,317.64-397.27,537.45-645.4,612.05C2672.53,4558.76,2777.6,4372.31,2863.38,4119.17Zm399.36-93.86c159.44-49.63,310.12-112.1,450-185.7C3464.26,4239.53,3117,4527.18,2721,4636.1,2928.89,4521.23,3114.56,4308.25,3262.74,4025.31ZM2909.82,4621c355.84-149.64,663.7-442.15,884.83-826.31,384.13-221.1,676.62-528.94,826.26-884.74C4417.74,3753.06,3753,4417.8,2909.82,4621Zm929.8-908.28c73.6-139.82,136.06-290.48,185.69-449.93,282.93-148.17,495.9-333.85,610.79-541.71C4527.18,3117,4239.54,3464.25,3839.62,3712.67Zm204.29-512.05a2934.37,2934.37,0,0,0,75.25-337.23c253.15-85.77,439.61-190.85,536.82-308.17C4581.38,2803.34,4361.56,3026.5,4043.91,3200.62Zm83.88-394.82q17.39-121.73,25.06-247.54c240-31,427.23-70.9,518.37-120.91C4620.66,2575.71,4423.29,2703.22,4127.79,2805.8Zm556.42-439c0,40.08-176.67,95.21-528.49,141.9,2.12-47,3.51-94.23,3.51-141.9s-1.39-94.92-3.51-141.9C4507.54,2271.65,4684.21,2326.75,4684.21,2366.85Zm-531.36-191.41q-7.67-125.71-25.05-247.5c295.48,102.56,492.85,230,543.42,368.39C4580.08,2246.32,4392.85,2206.46,4152.85,2175.44Zm-33.68-305.11a2935,2935,0,0,0-75.26-337.24c317.66,174.14,537.48,397.29,612.07,645.41C4558.78,2061.19,4372.31,1956.11,4119.17,1870.33ZM4025.31,1471c-49.63-159.43-112.1-310.08-185.7-449.92,399.92,248.42,687.57,595.7,796.49,991.61C4521.21,1804.81,4308.24,1619.14,4025.31,1471Zm595.59,352.82c-149.64-355.8-442.13-663.6-826.25-884.71-221.14-384.15-529-676.66-884.83-826.27C3753,315.92,4417.73,980.66,4620.9,1823.78ZM3712.68,894.11c-139.83-73.6-290.5-136.06-449.94-185.69C3114.56,425.5,2928.89,212.52,2721,97.62,3117,206.54,3464.26,494.2,3712.68,894.11ZM3200.61,689.83a2934.86,2934.86,0,0,0-337.23-75.26C2777.6,361.43,2672.53,175,2555.21,77.76,2803.34,152.35,3026.49,372.17,3200.61,689.83Zm-394.83-83.9q-121.7-17.35-247.51-25c-31-240-70.89-427.22-120.9-518.37C2575.72,113.1,2703.21,310.44,2805.78,605.93ZM2366.85,49.53c40.1,0,95.21,176.66,141.91,528.5-47-2.12-94.23-3.52-141.91-3.52s-94.91,1.4-141.9,3.52C2271.66,226.19,2326.76,49.53,2366.85,49.53Zm-191.4,531.36q-125.72,7.68-247.53,25.06C2030.5,310.44,2158,113.08,2296.34,62.52,2246.34,153.65,2206.47,340.89,2175.45,580.89Zm-305.13,33.68a2934.86,2934.86,0,0,0-337.23,75.26c174.13-317.64,397.27-537.48,645.4-612.07C2061.17,175,1956.1,361.43,1870.32,614.57ZM1471,708.42c-159.43,49.63-310.09,112.09-449.91,185.69,248.42-399.91,595.69-687.55,991.61-796.47C1804.81,212.54,1619.14,425.5,1471,708.42ZM1823.88,112.8C1468,262.41,1160.19,554.92,939.07,939.07,555,1160.18,262.46,1468,112.83,1823.78,316,980.66,980.75,315.92,1823.88,112.8ZM894.1,1021C820.5,1160.88,758.05,1311.53,708.41,1471c-282.93,148.18-495.9,333.85-610.8,541.71C206.53,1616.74,494.19,1269.46,894.1,1021ZM689.82,1533.09a2932.93,2932.93,0,0,0-75.27,337.24c-253.14,85.78-439.61,190.86-536.81,308.17C152.33,1930.36,372.16,1707.23,689.82,1533.09Zm-83.9,394.85q-17.37,121.68-25,247.5c-240,31-427.22,70.88-518.37,120.89C113.08,2158,310.44,2030.5,605.92,1927.94ZM49.51,2366.85c0-40.1,176.67-95.2,528.5-141.9-2.12,47-3.52,94.23-3.52,141.9s1.4,94.91,3.52,141.9C226.18,2462.06,49.51,2406.93,49.51,2366.85Zm531.36,191.41q7.68,125.73,25.06,247.54c-295.5-102.58-492.86-230.09-543.43-368.45C153.64,2487.36,340.88,2527.24,580.87,2558.26Zm33.69,305.15a2935,2935,0,0,0,75.25,337.21c-317.64-174.12-537.46-397.28-612.06-645.4C175,2672.54,361.41,2777.62,614.56,2863.41Zm93.85,399.33c49.64,159.45,112.09,310.11,185.69,450C494.19,3464.25,206.53,3117,97.61,2721,212.51,2928.89,425.48,3114.57,708.41,3262.74Zm230.66,531.9c221.12,384.16,529,676.67,884.81,826.29C980.74,4417.8,316,3753.06,112.82,2909.9,262.45,3265.7,554.94,3573.52,939.07,3794.64Z"/></g></g></svg>