<?xml version="1.0" encoding="utf-8"?>
<!-- Generator: Adobe Illustrator 26.0.2, SVG Export Plug-In . SVG Version: 6.00 Build 0)  -->
<svg version="1.1" id="Слой_1" xmlns="http://www.w3.org/2000/svg" xmlns:xlink="http://www.w3.org/1999/xlink" x="0px" y="0px"
	 viewBox="0 0 400 400" style="enable-background:new 0 0 400 400;" xml:space="preserve">
<style type="text/css">
	.st0{fill:#FFFFFF;}
</style>
<path class="st0" d="M219,242.83c0.15,1.75,0.3,3.5,0.44,5.26c0.08,1.01,0.12,2.02,0.2,3.02c0.03,0.37,0.08,0.76,0.22,1.11
	c0.47,1.14,1.6,1.28,2.38,0.33c0.18-0.22,0.33-0.46,0.54-0.76c1.19,1.17,1.96,2.52,2.68,3.88c0.57,1.07,1.05,2.2,1.51,3.33
	c0.57,1.4,0.51,1.66-0.88,2.22c-2.97,1.18-5.97,2.29-8.96,3.41c-1.14,0.43-2.35,0.71-3.44,1.23c-2.86,1.38-5.92,1.89-9.03,2.17
	c-4.57,0.41-9.14,0.8-13.71,1.19c-0.7,0.06-1.41,0.06-2.17,0.09c-0.02-0.6,0.41-0.69,0.68-0.9c1.82-1.36,3.64-2.72,5.45-4.09
	c0.33-0.25,0.63-0.56,0.9-0.88c0.37-0.42,0.43-0.91,0.2-1.41c-0.24-0.52-0.69-0.74-1.23-0.73c-0.33,0-0.67,0.06-0.99,0.15
	c-3.57,1-7.2,1.73-10.86,2.33c-1.12,0.18-2.2,0.57-3.3,0.83c-1.35,0.32-2.69,0.71-4.05,0.89c-7.63,1-15.28,0.86-22.93,0.26
	c-2.52-0.2-5.04-0.39-7.55-0.63c-4.84-0.46-9.55-1.49-14.15-3.07c-1.03-0.35-2.06-0.7-3.3-1.12c0.4-0.25,0.6-0.43,0.84-0.53
	c1.54-0.64,2.9-1.55,4.1-2.69c3.71-3.52,6.93-7.45,9.73-11.73c0.41-0.63,0.85-1.26,1.31-1.85c3.06-3.92,4.58-8.58,6.29-13.14
	c0.76-2.01,1.39-4.05,1.48-6.24c0.02-0.53,0.42-1.07,0.73-1.55c0.31-0.5,0.77-0.9,1.07-1.4c0.41-0.7,0.26-1.4-0.27-1.82
	c-0.5-0.4-1.11-0.36-1.73,0.11c-0.17,0.13-0.33,0.27-0.47,0.42c-2.75,3.11-6.1,5.54-9.22,8.23c-1.11,0.96-2.3,1.84-3.46,2.75
	c-0.25,0.2-0.54,0.35-1.02,0.39c0.34-0.83,0.66-1.67,1.01-2.5c2.5-6.03,4.93-12.08,6.92-18.3c1.47-4.6,1.92-9.39,2.3-14.18
	c0.13-1.63,0.15-3.28,0.22-4.92c0.03-0.8,0.15-0.95,0.95-1.01c0.59-0.05,1.18-0.03,1.77-0.07c0.42-0.03,0.84-0.09,1.25-0.19
	c0.44-0.1,0.78-0.39,0.78-0.87c0-0.52-0.4-0.71-0.84-0.79c-0.37-0.06-0.75-0.06-1.13-0.07c-4.85-0.11-9.64-0.64-14.4-1.66
	c-2.67-0.57-5.37-1.01-8.01-1.74c-0.38-0.11-0.76-0.25-1.42-0.47c0.62-0.45,1-0.76,1.41-1.02c6.55-4.2,13.07-8.46,20-12.04
	c0.63-0.33,1.26-0.68,1.86-1.07c1.05-0.7,1.04-1.89-0.03-2.56c-0.32-0.2-0.69-0.32-1.04-0.44c-3.38-1.16-6.8-2.22-10.14-3.5
	c-3.02-1.15-5.97-2.5-8.93-3.83c-2.72-1.22-5.46-2.43-8.11-3.81c-4.4-2.28-8.89-4.42-12.89-7.39c-0.19-0.14-0.36-0.31-0.71-0.62
	c0.53-0.11,0.88-0.21,1.23-0.25c4.73-0.53,9.44-1.14,14.18-1.57c8.26-0.74,16.23-2.8,24.22-4.86c0.76-0.2,1.56-0.27,2.35-0.29
	c1.22-0.04,1.88-0.91,1.39-2.04c-0.47-1.08-1.06-2.1-1.6-3.15c-6.24-12.19-11.7-24.72-16.55-37.52c-2.78-7.34-4.64-14.92-6.07-22.64
	c-0.79-4.27-1.49-8.53-1.94-12.84c-0.72-6.87-1.26-13.75-1.33-20.66c-0.01-0.67-0.11-1.34-0.13-2.01c-0.03-0.77,0.32-0.99,1.03-0.69
	c0.35,0.15,0.67,0.36,0.99,0.55c3.01,1.77,6.03,3.52,9.02,5.33c5.33,3.22,10.69,6.4,15.94,9.73c4.9,3.11,9.74,6.32,14.51,9.62
	c5.94,4.12,11.83,8.33,17.66,12.61c3.66,2.69,7.17,5.59,10.72,8.41c1.25,0.99,2.45,2.06,3.69,3.06c0.4,0.32,0.89,0.54,1.59,0.95
	c-0.08-0.54-0.06-0.83-0.17-1.03c-0.19-0.32-0.47-0.59-0.71-0.88c-0.29-0.36-0.25-0.7,0.11-0.99c0.2-0.16,0.41-0.29,0.62-0.43
	c3.94-2.64,8.18-4.67,12.67-6.19c9.05-3.06,18.36-4.58,27.9-4.66c8.87-0.08,17.27,1.96,25.23,5.84c0.83,0.41,1.66,0.83,2.51,1.19
	c0.2,0.09,0.5-0.05,0.76-0.09c-0.1-0.21-0.14-0.48-0.3-0.61c-0.55-0.45-1.15-0.85-1.71-1.29c-0.22-0.17-0.4-0.4-0.71-0.72
	c0.38-0.26,0.66-0.49,0.98-0.65c10.8-5.56,20.61-12.57,29.72-20.57c8.73-7.66,17.34-15.46,26-23.2c0.44-0.39,0.84-0.83,1.28-1.22
	c0.3-0.26,0.64-0.48,1.18-0.88c0.07,0.67,0.14,1.07,0.14,1.46c-0.06,7.76-0.72,15.46-2.01,23.12c-1.09,6.43-1.96,12.9-2.92,19.35
	c-0.76,5.12-1.42,10.26-2.3,15.36c-1.76,10.24-3.59,20.48-6.03,30.59c-0.5,2.09-0.98,4.18-1.43,6.28c-0.11,0.52-0.18,1.09-0.1,1.62
	c0.14,0.86,0.81,1.18,1.61,0.82c0.42-0.19,0.79-0.48,1.15-0.76c6.09-4.74,11.8-9.89,16.86-15.73c0.18-0.21,0.42-0.37,0.68-0.6
	c0.39,0.47,0.23,0.95,0.2,1.38c-0.39,4.49-0.87,8.96-1.79,13.38c-0.59,2.84-1.23,5.66-2.12,8.44c-1.05,3.28-1.78,6.67-2.75,9.98
	c-0.91,3.11-1.98,6.17-2.95,9.26c-0.18,0.59-0.32,1.23-0.3,1.85c0.04,0.95,0.72,1.36,1.58,0.99c0.57-0.25,1.1-0.63,1.56-1.04
	c3.62-3.21,7.21-6.45,10.82-9.68c0.39-0.35,0.79-0.69,1.38-0.88c-0.09,0.35-0.16,0.71-0.29,1.04c-1.28,3.2-2.54,6.41-3.89,9.59
	c-0.48,1.11-1.18,2.13-1.82,3.17c-1.85,3.01-3.68,6.03-5.58,9.01c-1.27,1.99-2.8,3.76-4.55,5.38c-2.62,2.41-4.6,5.34-6.5,8.33
	c-4.32,6.78-8.97,13.33-14.36,19.32c-3.49,3.88-6.8,7.93-10.46,11.64c-4.88,4.95-9.29,10.32-14.06,15.36
	c-0.82,0.87-0.96,0.86-1.76-0.08c-1.57-1.86-1.63-1.89-0.27-3.89c1.93-2.86,3.95-5.66,5.95-8.46c2.54-3.56,5.13-7.09,7.63-10.68
	c1.8-2.59,3.47-5.27,5.26-7.86c2.05-2.98,4.17-5.91,6.26-8.87c0.92-1.3,1.84-2.61,2.78-3.91c0.31-0.43,0.68-0.83,1.13-1.36
	c0.21,0.38,0.4,0.6,0.45,0.86c0.2,1.03,0.33,2.08,0.53,3.11c0.14,0.7,0.25,1.42,0.55,2.05c0.52,1.09,1.36,1.15,2.19,0.24
	c0.17-0.19,0.31-0.4,0.45-0.61c1.88-3.05,3.53-6.22,4.66-9.63c0.12-0.36,0.29-0.74,0.25-1.09c-0.03-0.33-0.24-0.75-0.5-0.92
	c-0.41-0.26-0.83,0.01-1.06,0.39c-0.31,0.5-0.62,1.01-0.8,1.56c-0.68,2.06-1.82,3.88-2.92,5.72c-0.1,0.17-0.26,0.29-0.51,0.56
	c-0.34-1.53-0.6-2.92-0.95-4.29c-0.21-0.85-0.49-1.7-0.84-2.5c-0.33-0.75-0.93-1.13-1.83-1.02c-3.85,0.45-7.7,0.85-11.54,1.3
	c-0.79,0.09-1.57,0.31-2.35,0.47c-0.93,0.19-1.37,0.78-1.68,1.67c-0.55,1.58-1.25,3.11-1.92,4.65c-0.14,0.32-0.42,0.59-0.82,1.14
	c-0.26-1.21-0.44-2.13-0.67-3.05c-0.3-1.18-0.63-2.35-0.96-3.52c-0.22-0.79-0.78-1.18-1.57-1.22c-0.46-0.02-0.93,0.01-1.38,0.06
	c-3.77,0.36-7.54,0.76-11.31,1.07c-2.14,0.18-4.29,0.21-6.43,0.31c-0.38,0.02-0.76,0.04-1.13,0.07c-1.51,0.1-2.48,0.82-2.93,2.32
	c-0.47,1.57-1.04,3.11-1.62,4.64c-0.42,1.09-0.92,2.16-1.81,3.15c-0.15-0.28-0.32-0.47-0.34-0.68c-0.35-2.93-1.53-5.59-2.6-8.28
	c-0.32-0.8-0.88-1.21-1.73-1.21c-0.38,0-0.76,0-1.13,0.04c-4.59,0.55-9.16,0.13-13.72-0.38c-2.59-0.29-5.18-0.6-7.78-0.9
	c-0.13-0.01-0.25-0.03-0.38-0.04c-2.09-0.19-2.58,0.16-3.52,2.07c-0.86,1.73-1.84,3.4-2.83,5.06c-0.35,0.59-0.86,1.08-1.45,1.79
	c-0.07-0.44-0.14-0.61-0.11-0.75c0.47-2.55-0.16-4.94-1.08-7.27c-1.25-3.15-0.77-2.97-4.31-3.57c-3.62-0.62-7.12-1.68-10.63-2.71
	c-1.28-0.37-2.64-0.57-3.97-0.63c-1.91-0.09-3.35,0.78-4.02,2.64c-0.98,2.73-1.97,5.46-2.84,8.23c-0.87,2.76-1.01,5.63-0.99,8.5
	c0.05,6.38,0.67,12.68,2.28,18.88c1.42,5.47,3.68,10.57,6.59,15.38c1.72,2.84,3.48,5.68,5.44,8.35c1.78,2.44,3.84,4.68,5.83,6.96
	c0.85,0.98,1.79,1.9,2.74,2.79c1.22,1.14,2.62,0.96,3.51-0.46c0.99-1.57,1.9-3.18,2.84-4.77c0.17-0.28,0.36-0.56,0.55-0.83
	C218.82,242.8,218.91,242.81,219,242.83z M205.53,122.79c-1.12-0.66-2.24-1.33-3.37-1.99c-0.33-0.19-0.66-0.37-1.01-0.51
	c-0.45-0.17-0.91-0.24-1.28,0.17c-0.35,0.4-0.37,0.87-0.08,1.28c0.39,0.55,0.31,1.1,0.15,1.68c-0.21,0.77-0.4,1.55-0.59,2.32
	c-1.69,6.78-1.97,13.63-1.14,20.55c0.45,3.81,1.53,7.49,2.57,11.17c0.16,0.57,0.51,0.94,1.06,1.16c1.8,0.71,3.58,1.48,5.4,2.13
	c4.27,1.51,8.7,2.26,13.18,2.76c4.75,0.53,9.4,0.07,13.99-1.23c4.67-1.32,9.13-3.18,13.56-5.1c0.58-0.25,0.78-0.74,0.52-1.36
	c-0.21-0.49-0.53-0.96-0.87-1.38c-4.45-5.47-9.33-10.49-15.26-14.4c-4.87-3.22-9.68-6.55-14.58-9.72
	C213.74,127.74,209.61,125.3,205.53,122.79z M289.75,147.34c0.01,0.01,0.03,0.02,0.04,0.03c-1.05,1.77-2.1,3.55-3.14,5.32
	c-0.19,0.33-0.39,0.65-0.55,0.99c-0.39,0.87-0.28,1.31,0.52,1.8c0.46,0.28,0.96,0.53,1.48,0.69c2.49,0.77,5,1.47,7.48,2.26
	c4.21,1.36,8.52,1.37,12.86,1.08c1.36-0.09,1.81-0.48,2.01-1.82c0.63-4.34,1.05-8.69,0.36-13.06c-1-6.36-2.37-12.64-4.14-18.83
	c-0.1-0.36-0.22-0.73-0.41-1.05c-0.5-0.84-1.19-0.9-1.84-0.2c-0.11,0.12-0.2,0.27-0.3,0.41c-2.08,3.06-4.22,6.07-6.21,9.19
	C295.14,138.51,292.47,142.94,289.75,147.34z"/>
<path class="st0" d="M258.77,365.79c-6.21,0.22-11.62-1.82-16-6.21c-4.2-4.21-7.28-9.15-8.75-14.97c-0.43-1.7-0.64-3.48-0.77-5.24
	c-0.34-4.49-0.69-8.98-0.83-13.48c-0.1-3.27,0.18-6.56,0.24-9.84c0.09-4.63,0.18-9.26,0.2-13.88c0.02-8.33,0-16.66-0.04-25
	c-0.02-4.43-0.31-8.84-1.53-13.13c-1.56-5.46-3.64-10.68-7.38-15.08c-0.16-0.19-0.28-0.44-0.48-0.58c-1.35-0.98-1.71-2.4-1.8-3.96
	c-0.06-1.05-0.19-2.1-0.35-3.14c-0.12-0.74-0.25-1.51-0.53-2.2c-0.49-1.19-1.53-1.33-2.37-0.34c-0.46,0.54-0.8,1.18-1.15,1.8
	c-0.99,1.75-1.93,3.53-2.93,5.28c-0.62,1.08-0.94,1.11-1.8,0.23c-2.64-2.72-5.29-5.44-7.39-8.61c-2.16-3.26-4.3-6.54-6.27-9.92
	c-3.84-6.6-6.02-13.78-6.84-21.36c-0.17-1.55-0.33-3.1-0.45-4.65c-0.09-1.14,0.09-1.28,1.24-1.41c3.36-0.35,6.63,0.07,9.82,1.17
	c4.22,1.46,8.36,3.08,12.36,5.08c6.45,3.23,11.98,7.6,16.8,12.93c2.94,3.25,5.86,6.5,8.17,10.25c0.9,1.47,1.72,2.99,2.59,4.48
	c0.19,0.32,0.41,0.64,0.7,0.87c0.3,0.25,0.74,0,0.68-0.39c-0.07-0.45-0.22-0.9-0.42-1.31c-1.4-2.88-2.91-5.69-4.84-8.27
	c-3.26-4.35-6.7-8.55-10.68-12.26c-3.65-3.4-7.7-6.25-12.26-8.35c-2.05-0.94-4.08-1.94-6.28-2.99c3.46-0.53,6.74-0.62,10.03,0.13
	c3.34,0.76,6.52,1.99,9.62,3.42c4.28,1.97,8.6,3.86,12.74,6.09c5.11,2.75,10.07,5.76,14.69,9.32c5.84,4.5,10.96,9.66,15.54,15.43
	c3.67,4.63,6.83,9.59,9.85,14.65c3,5.04,5.58,10.28,8.01,15.6c2.57,5.64,4.02,11.59,5.01,17.68c1.07,6.58,1.65,13.2,1.63,19.86
	c-0.02,6.41-0.73,12.77-1.77,19.09c-0.87,5.28-1.99,10.5-3.6,15.61c-0.95,3.02-2.12,5.96-3.69,8.7
	c-4.41,7.66-10.67,13.25-18.95,16.49"/>
<path class="st0" d="M11.06,267.67c3.67-5.18,7.41-10.31,11.05-15.52c2.17-3.1,4.2-6.3,6.28-9.46c2.71-4.12,5.63-8.07,8.95-11.72
	c2.51-2.76,5.6-4.27,9.3-4.48c3.36-0.19,6.72-0.3,10.09-0.43c0.24-0.01,0.49,0.06,0.84,0.11c-0.01,0.37,0.02,0.69-0.04,1
	c-0.13,0.62-0.33,1.22-0.46,1.84c-0.21,1.02,0.06,1.56,1.1,1.73c1.19,0.2,2.43,0.41,3.62,0.3c4.64-0.41,8.89-1.87,12.91-4.32
	c4.98-3.02,9-7.02,12.84-11.29c0.75-0.84,1.58-1.45,2.66-1.81c1.98-0.66,3.66-1.85,5.28-3.14c0.72-0.57,1.49-1.09,2.27-1.59
	c1.06-0.67,1.84-1.59,2.5-2.63c0.11-0.18,0.23-0.36,0.3-0.55c0.17-0.44,0.3-0.92-0.12-1.29c-0.46-0.41-0.98-0.23-1.39,0.09
	c-0.43,0.33-0.8,0.74-1.15,1.16c-1.33,1.59-3.23,2.34-4.88,3.61c-0.04-0.28-0.09-0.39-0.06-0.43c1.28-1.54,2.02-3.39,2.9-5.15
	c0.21-0.41,0.42-0.85,0.46-1.29c0.04-0.33-0.08-0.86-0.31-0.99c-0.3-0.16-0.83-0.14-1.15,0.03c-0.39,0.19-0.72,0.58-0.98,0.94
	c-1.1,1.54-2.18,3.09-3.22,4.67c-2.03,3.07-4.55,5.73-7.09,8.36c-1.84,1.9-3.64,3.9-5.72,5.49c-2.49,1.91-5.24,3.51-7.95,5.11
	c-1.07,0.63-2.33,0.95-3.54,1.31c-1.93,0.58-3.89,1.07-5.85,1.59c-0.16,0.04-0.33,0.03-0.49,0.04c-0.5-0.53-0.19-1.07-0.08-1.57
	c0.67-3.08,1.39-6.16,2.05-9.24c1.09-5.1,2.13-10.22,3.23-15.32c0.58-2.67,1.15-5.35,1.88-7.98c0.56-2,1.75-3.72,3.06-5.33
	c5.38-6.59,11.73-12.16,18.38-17.42c1.87-1.48,3.9-2.45,6.37-2.31c0.87,0.05,1.5,0.26,1.94,1.1c0.44,0.85,1.06,1.61,1.62,2.4
	c2.12,3.02,3.75,6.26,4.85,9.8c1.2,3.86,2.49,7.69,2.97,11.73c0.21,1.75,0.24,3.52,0.38,5.28c0.26,3.4,0.44,6.8,0.85,10.18
	c0.46,3.87,1.8,7.52,3.1,11.17c2.45,6.88,5.61,13.43,9.3,19.72c0.23,0.4,0.46,0.8,0.67,1.21c0.44,0.86,0.54,1.74,0.18,2.68
	c-1.65,4.29-2.19,8.8-2.67,13.33c-0.47,4.48-0.64,8.97-0.56,13.48c0.07,3.88,0.16,7.73,0.8,11.57c0.47,2.8,1.49,5.43,2.43,8.09
	c0.55,1.55,1.2,3.06,1.79,4.58c0.1,0.27,0.17,0.55,0.3,0.96c-0.46,0.17-0.87,0.37-1.29,0.48c-2.76,0.72-5.43,0.3-8.04-0.68
	c-2.43-0.92-4.46-2.52-6.54-4c-4.39-3.1-7.39-7.41-10.13-11.95c-2.35-3.9-3.5-8.09-3.34-12.63c0.09-2.56,0.26-5.12,0.46-7.68
	c0.17-2.14,0.39-4.27-0.12-6.4c-0.19-0.78-0.53-1.42-1.27-1.77c-0.48-0.23-0.99-0.28-1.41,0.13c-0.37,0.36-0.41,0.8-0.25,1.28
	c0.17,0.54,0.54,1.06,0.18,1.82c-0.45-0.27-0.92-0.44-1.25-0.76c-1.75-1.68-3.18-3.58-3.89-5.95c-0.1-0.32-0.22-0.64-0.38-0.93
	c-0.24-0.43-0.66-0.78-1.13-0.6c-0.38,0.15-0.73,0.54-0.92,0.92c-0.16,0.3-0.1,0.74-0.07,1.11c0.11,1.19,0.45,2.31,1.08,3.33
	c0.42,0.68,0.86,1.35,1.3,2.02c0.78,1.18,0.76,1.45-0.51,1.97c-2.53,1.04-5.06,2.09-7.65,2.95c-1.25,0.41-2.64,0.53-3.97,0.54
	c-1.51,0-3.02-0.21-4.51-0.44c-1.59-0.25-3.08-0.77-4.32-1.9c-0.99-0.91-2.1-1.68-3.15-2.53c-0.32-0.26-0.61-0.56-1.03-0.96
	c0.37-0.37,0.69-0.68,0.99-0.99c0.67-0.69,1.37-1.36,1.98-2.1c0.25-0.3,0.43-0.77,0.41-1.16c-0.02-0.36-0.27-0.78-0.54-1.05
	c-0.34-0.33-0.79-0.2-1.15,0.08c-0.33,0.26-0.64,0.55-0.97,0.8c-1.55,1.16-3.08,2.34-4.65,3.47c-1.31,0.95-2.84,1.22-4.42,1.27
	c-0.15,0.01-0.31-0.07-0.63-0.15c0.59-0.69,1.08-1.3,1.6-1.88c1.94-2.14,3.3-4.67,4.65-7.19c0.38-0.7,0.45-1.45,0.15-2.2
	c-0.34-0.85-1.03-0.98-1.65-0.29c-0.42,0.47-0.84,0.96-1.15,1.5c-2.4,4.22-5.54,7.81-9.19,10.98c-3.62,3.15-7.2,6.33-10.84,9.46
	c-3.77,3.24-8.25,4.99-13.06,5.98c-0.12,0.03-0.25,0.05-0.37,0.05c-3.36-0.05-6.72-0.08-10.08-0.19"/>
<path class="st0" d="M97.92,239.65c0.37-0.65,0.7-1.21,0.25-1.76c-0.47-0.58-1.09-0.31-1.62-0.07c-0.8,0.36-1.58,0.78-2.36,1.2
	c-1.47,0.81-3.02,1.26-4.7,1.23c-0.67-0.01-1.35,0.04-2.02,0.02c-4.81-0.16-9.22,1.14-13.33,3.57c-0.61,0.36-1.21,0.78-1.69,1.29
	c-0.35,0.37-0.62,0.92-0.73,1.42c-0.18,0.88,0.58,1.44,1.43,1.11c0.23-0.09,0.43-0.26,0.64-0.4c3.45-2.31,7.15-3.88,11.37-4
	c1.68-0.05,3.36-0.14,5.04-0.14c2.77,0,4.99-1.33,7.13-2.86C97.6,240.08,97.79,239.79,97.92,239.65z"/>
<path class="st0" d="M353.42,270.05c-0.12-0.3-0.28-0.59-0.37-0.9c-0.78-2.75-1.53-5.51-2.33-8.26c-0.79-2.71-0.99-5.45-0.62-8.24
	c0.41-3.08,0.54-6.2,1.41-9.21c0.52-1.8,1.28-3.43,2.38-4.97c0.97-1.35,1.74-2.87,2.43-4.4c0.35-0.77,0.41-1.71,0.47-2.59
	c0.08-1.19-0.36-2.23-1.24-3.06c-2.13-2.01-4.53-3.63-7.18-4.86c-1.39-0.65-2-0.5-3.01,0.62c-0.76,0.84-1.45,1.75-2.19,2.61
	c-1.55,1.79-3.34,3.17-5.77,3.56c-1.21,0.19-1.63,0.86-1.06,1.71c0.99,1.47,0.82,3,0.25,4.47c-0.67,1.72-1.51,3.38-2.38,5
	c-1.87,3.5-4,6.83-6.86,9.62c-0.99,0.96-2.1,1.82-3.28,2.54c-0.68,0.42-1.58,0.55-2.4,0.64c-0.82,0.09-1.12-0.28-1.16-1.13
	c-0.02-0.38,0.01-0.76,0.08-1.13c0.75-3.96,0.96-7.9,0.23-11.91c-0.33-1.79-0.1-3.69-0.08-5.54c0.01-1.09,0.14-2.18,0.2-3.28
	c0.07-1.36,0.57-2.51,1.45-3.55c1.66-1.96,3.32-3.91,4.87-5.96c1.11-1.47,2.05-3.07,3.06-4.62c1.07-1.66,2.11-3.34,3.22-4.98
	c0.29-0.43,0.76-0.79,1.22-1.07c2.4-1.47,4.85-2.87,7.24-4.37c4.06-2.55,8.17-5.02,11.92-8.04c4.04-3.26,8.48-5.7,13.63-6.83
	c3.48-0.76,6.66-0.23,9.8,1.25c3.78,1.79,6.8,4.46,9.24,7.83c1.26,1.74,2,3.67,2.31,5.8c0.45,3.05,0.11,6.03-0.59,9.01
	c-1.07,4.53-3.04,8.63-5.69,12.42c-0.84,1.21-1.64,2.45-2.49,3.64c-1.45,2.01-3.3,3.58-5.46,4.78c-1.08,0.6-1.79,1.36-1.96,2.72
	c-0.14,1.14-0.67,2.25-1.16,3.32c-1.6,3.47-3.15,6.98-4.93,10.36c-1.29,2.45-2.88,4.74-4.43,7.04c-1.55,2.3-3.2,4.53-4.83,6.78
	C356.25,268.37,354.86,269.48,353.42,270.05z M362.97,217.16c0.07,0.06,0.14,0.13,0.2,0.19c0.25-0.09,0.55-0.12,0.74-0.27
	c0.52-0.43,1.01-0.89,1.48-1.37c2.28-2.37,3.71-5.29,5.25-8.14c0.46-0.85,0.8-1.76,1.14-2.66c0.19-0.5,0.43-1.15-0.23-1.45
	c-0.65-0.29-1,0.32-1.27,0.77c-1.06,1.81-2.07,3.66-3.12,5.48c-1.26,2.17-1.97,4.66-3.76,6.53
	C363.19,216.47,363.11,216.85,362.97,217.16z M358,252.9c0.02-0.02,0.03-0.04,0.05-0.07c0.53,0.25,1.05,0.53,1.6,0.75
	c0.5,0.2,1,0.16,1.37-0.3c0.31-0.4,0.2-0.99-0.26-1.48c-0.14-0.15-0.3-0.32-0.48-0.4c-0.93-0.37-1.86-0.76-2.83-1.03
	c-0.28-0.08-0.84,0.14-0.95,0.38c-0.14,0.31-0.1,0.89,0.11,1.13C356.97,252.3,357.53,252.56,358,252.9z"/>
<path class="st0" d="M259.47,206.13c0.98-1.31,1.23-2.94,1.72-4.45c0.5-1.56,0.91-3.16,1.15-4.78c0.24-1.62,0.35-3.27,0.29-4.91
	c-0.06-1.62-0.4-3.22-0.62-4.91c0.39-0.07,0.7-0.16,1.02-0.2c4.56-0.46,9.12-0.91,13.69-1.36c0.25-0.02,0.5-0.06,0.75-0.08
	c0.91-0.05,1.05,0.01,1.28,0.84c0.81,2.92,1.52,5.87,1.47,8.94c0,0.08-0.04,0.18-0.01,0.25c0.15,0.32,0.26,0.81,0.51,0.89
	c0.26,0.09,0.75-0.11,0.97-0.35c0.46-0.48,0.88-1.03,1.2-1.61c0.76-1.4,1.48-2.83,2.17-4.27c0.61-1.29,1.18-2.6,1.72-3.92
	c0.27-0.66,0.77-0.84,1.38-0.9c1.76-0.19,3.51-0.39,5.27-0.58c1.72-0.19,3.43-0.38,5.15-0.56c0.36-0.04,0.73-0.02,1.36-0.04
	c-0.4,0.68-0.66,1.19-0.98,1.65c-3.38,4.77-6.78,9.52-10.17,14.29c-3.58,5.04-7.13,10.1-10.71,15.15
	c-2.82,3.98-5.66,7.95-8.49,11.92c-0.79,1.1-1.21,1.12-2.18,0.13c-3.71-3.81-7.77-7.2-12.08-10.31c-1.74-1.26-3.39-2.63-5.18-3.8
	c-2.11-1.38-4.29-2.65-6.49-3.87c-1.91-1.06-3.88-2.02-5.85-2.97c-1.97-0.95-3.96-1.87-5.96-2.75c-1.49-0.66-1.55-0.84-1.58-2.45
	c-0.04-2.22-0.15-4.46-0.4-6.66c-0.29-2.47-1.43-4.65-2.71-6.74c-0.26-0.42-0.49-0.85-0.72-1.24c0.41-0.55,0.85-0.32,1.24-0.28
	c3.06,0.29,6.11,0.62,9.17,0.91c3.07,0.29,6.13,0.3,9.19-0.12c1.14-0.16,1.37-0.03,1.79,1.09c0.59,1.58,1.27,3.14,1.68,4.76
	c0.34,1.33,0.35,2.74,0.49,4.12c0.05,0.54,0.03,1.09,0.07,1.64c0.04,0.52,0.16,1.03,0.7,1.25c0.59,0.24,1.1-0.04,1.47-0.45
	c0.5-0.56,0.96-1.16,1.37-1.79c0.41-0.64,0.71-1.34,1.08-2c0.11-0.2,0.29-0.36,0.63-0.78c-0.13,2.9-0.28,5.49-0.94,8.02
	c-0.43,1.63-0.91,3.24-1.35,4.87c-0.13,0.47-0.37,1.01,0.2,1.37c0.37,0.23,0.76-0.1,1.15-0.89c1.84-3.73,2.77-7.66,2.71-11.82
	c-0.01-0.71,0.08-1.43,0.04-2.14c-0.03-0.58-0.12-1.17-0.33-1.7c-0.21-0.55-0.27-1.05-0.08-1.59c0.39-1.11,0.77-2.23,1.19-3.33
	c0.28-0.74,0.71-0.96,1.46-0.9c0.72,0.05,0.86,0.55,0.97,1.12c0.54,2.58,0.51,5.18,0.41,7.8c-0.11,3.13-0.49,6.2-1.62,9.16
	c-0.15,0.39-0.1,0.85-0.14,1.27C259.16,206.05,259.32,206.09,259.47,206.13z"/>
<path class="st0" d="M349.89,199.11c-0.56,0.41-1.1,0.87-1.69,1.23c-3.88,2.44-7.77,4.86-11.65,7.29c-0.68,0.42-1.33,0.88-2.02,1.29
	c-2.18,1.31-3.8,3.14-5.09,5.31c-0.47,0.79-1.03,1.53-1.56,2.29c-0.4,0.56-0.92,0.63-1.56,0.4c-2.23-0.8-4.04-2.24-5.7-3.85
	c-0.63-0.62-0.52-1.07,0.23-1.49c0.81-0.45,1.6-0.95,2.45-1.29c3.01-1.21,5.63-2.98,7.97-5.22c1.85-1.77,3.76-3.49,5.63-5.24
	c0.79-0.74,1.67-1.33,2.73-1.5c3.4-0.56,6.77-0.09,10.12,0.43C349.79,198.87,349.84,198.99,349.89,199.11z"/>
<path class="st0" d="M202.66,181.14c-3.03,2.21-4.94,5-6.51,8.05c-1.02,1.97-1.3,4.16-1.7,6.31c-0.05,0.25-0.06,0.5-0.1,0.75
	c-0.18,1.27-0.96,1.8-2.2,1.49c-0.55-0.14-0.57-0.58-0.56-1c0.04-1.39,0.03-2.78,0.19-4.16c0.48-4.09,1.82-7.94,3.43-11.71
	c0.35-0.81,0.93-1.13,1.78-1.13C198.93,179.73,200.66,180.49,202.66,181.14z"/>
<path class="st0" d="M205.72,182.04c0.38,0.06,0.74,0.12,1.09,0.18c1.69,0.31,3.38,0.65,5.08,0.93c0.61,0.1,1.05,0.33,1.22,0.92
	c0.36,1.29,0.94,2.58,0.99,3.89c0.08,2.43-0.69,4.62-2.73,6.21c-0.96,0.75-1.92,0.74-2.95,0.25c-0.95-0.46-1.54-1.19-1.53-2.27
	c0.01-1.05-0.05-2.13,0.19-3.13c0.58-2.44,0.39-4.67-1.31-6.64C205.73,182.33,205.75,182.23,205.72,182.04z"/>
<path class="st0" d="M204.35,124.25c3.66,2.44,7.19,4.8,10.73,7.15c2.14,1.42,4.31,2.79,6.45,4.2c5.25,3.49,10.6,6.86,15.46,10.9
	c2.92,2.42,5.53,5.18,8.05,8c0.88,0.99,0.82,1.4-0.46,1.95c-2.2,0.95-4.43,1.84-6.69,2.65c-4.14,1.47-8.36,2.6-12.8,2.66
	c-4.53,0.07-8.99-0.61-13.36-1.73c-2.39-0.61-4.7-1.57-7.04-2.38c-1.25-0.43-1.88-1.31-2.28-2.61c-1.31-4.33-2.21-8.73-2.38-13.25
	c-0.17-4.35-0.01-8.67,0.91-12.94c0.3-1.4,0.69-2.78,1.05-4.16c0.35-1.33,0.66-1.45,1.83-0.75
	C204.05,124.07,204.27,124.2,204.35,124.25z M223.9,156.24c0.03-0.92,0.14-1.68,0.08-2.42c-0.3-3.81-0.64-7.61-0.97-11.42
	c-0.02-0.25-0.01-0.54-0.13-0.73c-0.16-0.25-0.42-0.53-0.69-0.59c-0.15-0.04-0.46,0.3-0.58,0.53c-0.13,0.25-0.16,0.57-0.17,0.86
	c-0.04,0.88-0.13,1.77-0.06,2.64c0.21,2.64,0.45,5.27,0.73,7.9c0.08,0.79,0.32,1.56,0.53,2.33c0.07,0.27,0.21,0.58,0.41,0.76
	C223.2,156.23,223.51,156.18,223.9,156.24z"/>
<path class="st0" d="M292.79,146.46c0.69,1.44,0.31,3.14,1.49,4.2c0.12-0.01,0.23-0.02,0.35-0.03c0.08-0.46,0.23-0.93,0.23-1.39
	c-0.01-1.43-0.06-2.86-0.13-4.28c-0.06-1.17,0.22-2.21,0.85-3.22c2.82-4.53,5.58-9.09,8.37-13.64c0.19-0.3,0.43-0.57,0.81-1.06
	c0.24,0.61,0.42,0.97,0.52,1.35c1.57,5.94,2.87,11.93,3.7,18.02c0.46,3.38,0.09,6.71-0.33,10.05c-0.12,0.92-0.32,1.08-1.35,1.15
	c-3.54,0.25-7.06,0.14-10.5-0.84c-2.34-0.67-4.68-1.36-7.02-2.05c-0.32-0.09-0.64-0.2-0.95-0.34c-0.7-0.33-0.8-0.59-0.47-1.29
	c0.22-0.45,0.48-0.89,0.75-1.31c1.05-1.62,2.12-3.23,3.18-4.84C292.37,146.78,292.52,146.7,292.79,146.46z"/>
</svg>
